<svg xmlns="http://www.w3.org/2000/svg" viewBox="0 0 2426.55 1773.79"><defs><style>.cls-1,.cls-2,.cls-5{fill:#242b59;}.cls-2{font-size:300px;font-family:MongolianBaiti, Mongolian Baiti;letter-spacing:0.12em;}.cls-3{letter-spacing:0.04em;}.cls-4{letter-spacing:0.12em;}.cls-5{font-size:404px;font-family:LongStoryShortDemo-Regular, Long Story Short Demo;letter-spacing:0.04em;}</style></defs><g id="Capa_2" data-name="Capa 2"><g id="Capa_1-2" data-name="Capa 1"><path class="cls-1" d="M1609.21,984.92l6.45-817.11L869.13,0l-1.57,817.63,51.76,16.73.62-240.61a215.3,215.3,0,0,1,15.26-80c22.55-55.83,43.44-75,78.63-73.8,44.79,1.56,87.34,93.49,84.63,138.59,4.7,116.06-1.92,177.4,2.78,293.46l48.62,12.54s-4.7-247.27,13.59-316.8c11.52-43.75,41-74.4,78.16-78.42,38.69-4.18,81.29,49.67,89.35,123.91,9.44,86.86,7.63,193.42,4,310.52l50.18,12.55c1.05-185.06.23-298.79,24.05-341.9,8.1-14.65,24.36-44.08,55.67-52.59a70.52,70.52,0,0,1,25.36-1.78c36.49,4.47,71.62,54.37,77.37,114.49,5.75,122.33,5.75,200.75,3.4,321.69Z"/><text class="cls-2" transform="translate(0 1287.99)">UNIVERSI<tspan class="cls-3" x="1690.35" y="0">T</tspan><tspan class="cls-4" x="1885.88" y="0">AS</tspan></text><text class="cls-5" transform="translate(658.13 1605.32)">Legal</text></g></g></svg>