<svg xmlns="http://www.w3.org/2000/svg" viewBox="0 0 2674 1097.22"><defs><style>.cls-1,.cls-2,.cls-4{fill:#fff;}.cls-2{font-size:242.7px;font-family:MongolianBaiti, Mongolian Baiti;letter-spacing:0.12em;}.cls-3{letter-spacing:0.04em;}.cls-4{font-size:323.6px;font-family:LongStoryShortDemo-Regular, Long Story Short Demo;letter-spacing:0.04em;}</style></defs><g id="Capa_2" data-name="Capa 2"><g id="Capa_1-2" data-name="Capa 1"><path class="cls-1" d="M601.33,798.57l5.23-662.51L1.27,0,0,662.93,42,676.5l.51-195.08a174.26,174.26,0,0,1,12.38-64.87c18.28-45.27,35.21-60.84,63.74-59.84,36.32,1.27,70.82,75.8,68.62,112.37,3.81,94.1-1.56,143.84,2.26,237.93l39.42,10.18s-3.82-200.49,11-256.87c9.33-35.47,33.25-60.32,63.37-63.58,31.37-3.39,65.91,40.27,72.45,100.46,7.65,70.43,6.18,156.83,3.21,251.78l40.69,10.17c.85-150,.19-242.26,19.5-277.21,6.57-11.88,19.75-35.74,45.14-42.64a56.93,56.93,0,0,1,20.56-1.44c29.58,3.62,58.07,44.08,62.73,92.82,4.66,99.19,4.66,162.77,2.76,260.83Z"/><text class="cls-2" transform="translate(678.28 414.28)">UNIVERSI<tspan class="cls-3" x="1367.49" y="0">T</tspan><tspan x="1525.67" y="0">AS</tspan></text><text class="cls-4" transform="translate(1114.62 663.42)">Legal</text></g></g></svg>