<svg id="Capa_1" data-name="Capa 1" xmlns="http://www.w3.org/2000/svg" viewBox="0 0 805.88 254.24">
  <defs>
    <style>
      .cls-1 {
        fill: #00026b;
      }
    </style>
  </defs>
  <g>
    <path class="cls-1" d="M26.6,40.2c-.4,12.8-.6,60.4-.4,105.7l.3,82.4,5,1.8c9.3,3.3,8.5,6.5,8.5-32.7,0-37.5.4-41.3,5.7-51.8C51,134.9,55.8,131,63.3,131c5.4,0,12.2,6,16.7,14.9,5.6,11,5.4,9.6,6,54.6l.5,42,6.1,1.6,6.1,1.7.6-32.7c.3-17.9,1.1-36.2,1.7-40.6,4.5-32.9,32-38.9,41.9-9.2,3.6,10.6,4.4,22.2,4.4,58.4v34.1l4.6,1.2c2.5.6,5.4,1.3,6.4,1.6,1.6.5,1.7-1,1.7-22.8,0-39,2.1-58.2,7.2-66.7,5.1-8.7,10.1-12.1,17.5-12.1,8.4,0,14.9,6,19.4,17.9,2.7,7.2,3.8,24.2,3.8,64.7l.1,30,4.9,1,4.8,1,.7-72.1c.3-39.6.7-87.1.8-105.5l.3-33.5-12-2.7c-6.6-1.5-32.2-7.3-57-12.8C94.8,32.5,31.1,18.1,28.9,17.4,27.4,17,27.2,19.3,26.6,40.2Z" transform="translate(-26.12 -17.36)"/>
    <path class="cls-1" d="M605.6,98c-7.9,2.4-12.2,12.7-7.9,19,2.3,3.4,3.4,4.2,13.5,10.1,4.9,2.8,9.5,6,10.3,7.2a7.8,7.8,0,0,1-1,10.2c-2,2-3.4,2.5-7.8,2.5-7.4,0-11.7-2.9-13.7-9.3-.8-2.6-1.8-4.7-2.2-4.7s-.8,3.8-.8,8.5c0,8.6.4,9.7,2.4,6.9,1.1-1.4,1.6-1.4,5.6,0,10.8,3.8,20.7.8,24.2-7.1,3.8-8.6-.3-14.8-14.4-21.9C605.1,115,602,112.1,602,108c0-5.8,5.7-9,12.7-7.1,4.8,1.3,6.8,3.4,9.3,9.7l1.9,4.9.1-9.4c0-8.2-.2-9.2-1.4-7.6-1.3,1.8-1.6,1.8-7.3.2C610.8,96.8,609.8,96.8,605.6,98Z" transform="translate(-26.12 -17.36)"/>
    <path class="cls-1" d="M754.7,100.1c-21,48.7-20,46.7-23,47.9-1.5.6.2.9,5.8.8,4.4,0,7.1-.3,6-.5-5-1.2-5.1-2.5-1.2-11.6l2-4.8,10,.3,10,.3,2.4,6.3c2.5,6.7,2.4,7.8-1.1,9.2-1.4.6,1.3.9,7.9.9,7.8-.1,9.4-.3,7.3-1-3.2-1.2-4.1-3.1-15.3-30.4-4.3-10.5-8.2-19.4-8.6-19.9S755.5,98.3,754.7,100.1Zm4.2,18.9,3.9,9.5-8,.3c-4.4.2-8.3.1-8.5-.2s1.4-4.7,3.8-10,4.3-9.5,4.5-9.3S756.7,113.8,758.9,119Z" transform="translate(-26.12 -17.36)"/>
    <path class="cls-1" d="M806.3,98.9c-4.8,2.3-7.3,5.5-8,10.8-.7,5.6,2.6,9.9,12.2,15.4,12.2,7.1,14.5,9.4,14.5,13.9,0,5.2-3.5,8-10,8-7.3,0-11.3-3.2-14.8-12-.8-2-1.1-.6-1.1,6.5,0,7.7.2,8.7,1.3,7.3,1.2-1.7,1.7-1.7,6.2-.3,13.6,4.1,25.4-1.7,25.4-12.5,0-5.9-3.4-9.7-13.9-15.5-9.9-5.5-14.1-9.2-14.1-12.6,0-2.9,5.3-7.9,8.5-7.9,6.3,0,12.7,5,14,11,1.2,5.5,2.5,3,2.5-4.8,0-8.4-.6-10.2-2.5-7.5-1.2,1.6-1.6,1.6-6.5,0C813.4,96.6,811.5,96.6,806.3,98.9Z" transform="translate(-26.12 -17.36)"/>
    <path class="cls-1" d="M244.7,98.7c4.4.8,4.8,2.6,5.3,22.4.5,20.5.8,21.4,7.4,26.3,4.3,3.3,16.7,3.5,22.5.4,8.1-4.2,8.5-5.3,9.1-26.6.3-10.3.9-19.3,1.3-19.9s2.2-1.7,4-2.2c2.5-.7,1.2-.9-6.3-.9-7,0-8.7.2-6.6.8,1.6.5,3.3,1.5,3.7,2.2,1.2,1.9,1.1,32.6-.1,37-1.4,5-5.9,8-12.7,8.6-7.3.6-11.1-1.1-13.4-6.2-1.6-3.5-1.9-6.7-1.9-21.1,0-9.4.4-17.6.9-18.3s2.1-1.7,3.7-2.2c2-.6-.4-.8-8.1-.8C247.5,98.2,243.5,98.5,244.7,98.7Z" transform="translate(-26.12 -17.36)"/>
    <path class="cls-1" d="M310.7,99.9c2.3,1.1,4.6,2.8,5.2,3.9,1.2,2.3,1.4,37,.2,41.2a4.19,4.19,0,0,1-3.6,3.1c-1.7.4,1.1.6,6,.6s7.8-.2,6.3-.4c-4.6-.7-4.9-1.9-4.6-20.4l.3-17.2,7,8.4c3.9,4.6,11.3,13.5,16.4,19.6s9.8,11.3,10.2,11.3.9-10.7.9-23.8.4-24.3.9-25,2.1-1.7,3.7-2.2c2.1-.6.4-.8-6.6-.8-7.6,0-8.9.2-6.2.9a6.06,6.06,0,0,1,4.2,3.5c1.2,3,1.4,33.4.3,33.4-.5-.1-7.6-8.5-15.8-18.8l-15-18.7-7-.3-7-.2Z" transform="translate(-26.12 -17.36)"/>
    <path class="cls-1" d="M378,99.3l3.5,1.2.3,22.4c.2,15.1-.1,22.8-.9,23.7a7.1,7.1,0,0,1-3.7,1.7c-1.5.2,2.3.4,8.3.5,8.3,0,10.2-.2,7.8-.9l-3.2-.9-.3-16.8c-.2-9.2-.1-19.6.2-23.2.5-6.4.6-6.5,4-7.7,3.1-1.1,2.2-1.2-8-1.2S374.9,98.2,378,99.3Z" transform="translate(-26.12 -17.36)"/>
    <path class="cls-1" d="M411.5,99.8c2.5,1.6,4.7,5.8,13.5,26,5.8,13.3,10.9,24,11.4,23.9s5.2-10.6,10.3-23.3c7.5-18.5,9.9-23.4,12.5-25.7l3.2-2.7h-7.7c-4.2,0-7.7.2-7.7.5s1.1,1,2.5,1.5a3.46,3.46,0,0,1,2.5,3c0,3-13.1,35.3-14,34.3-1.5-1.7-14-32.2-14-34.2,0-1.2,1.1-2.6,2.8-3.5,2.5-1.4,2.1-1.5-7.8-1.6H408.5Z" transform="translate(-26.12 -17.36)"/>
    <path class="cls-1" d="M478,99.3l3.5,1.2.3,22.4c.2,15.1-.1,22.8-.9,23.7a7.1,7.1,0,0,1-3.7,1.7c-1.5.2,6.3.5,17.4.6l20,.1,1.8-5.6c2-6.4,1.7-7.7-.9-3.7-3.5,5.6-5.2,6.3-15.7,6.3H490V136c0-5.5-.1-10.3-.2-10.8-.5-1.2,13-1.4,15.2-.2a9.58,9.58,0,0,1,3.4,4.3c1.4,3,1.4,2.7,1.5-6.3v-9.5l-1.7,3.5-1.7,3.5-8.5.3-8.5.3.3-10.1.3-10h8.5c9.7,0,12,.9,13.9,5.3l1.4,3.2.1-5.8V98l-19.7.1C477.6,98.1,475.1,98.3,478,99.3Z" transform="translate(-26.12 -17.36)"/>
    <path class="cls-1" d="M532.7,98.6c4.8,1.1,5.3,3.3,5.3,25.4s-.3,23.5-5,24.3c-1.4.2,2.5.4,8.5.4s9.9-.2,8.5-.4c-4.2-.7-5-2.9-5-13.5V125h2.8c2.3.1,3.9,1.7,11.2,12l8.5,12,7-.1c5.9-.1,6.5-.2,3.9-1-4.1-1.2-7-4.2-14.4-15l-6.1-8.9,4.1-1.6a17.31,17.31,0,0,0,6-4.2c2.5-3.1,2.6-9.3.3-13.3-3-5.1-7.1-6.2-23.3-6.5C537,98.2,531.5,98.4,532.7,98.6Zm25.2,5c8.2,6.8,2.6,18.4-8.9,18.4h-4v-9.9c0-10.8,0-10.9,6.2-11A9.23,9.23,0,0,1,557.9,103.6Z" transform="translate(-26.12 -17.36)"/>
    <path class="cls-1" d="M648,99.3l3.5,1.2.3,22.4c.2,15.1-.1,22.8-.9,23.7a7.1,7.1,0,0,1-3.7,1.7c-1.5.2,2.3.4,8.3.5,7.7,0,10.1-.2,8.1-.8-1.6-.5-3.3-1.5-3.7-2.2-1-1.5-1.2-39.2-.2-42.7.3-1.3,1.9-2.9,3.7-3.7,2.8-1.2,2.2-1.3-7.9-1.3C645.7,98.1,644.9,98.2,648,99.3Z" transform="translate(-26.12 -17.36)"/>
    <path class="cls-1" d="M680,104.1c0,3.7.4,5.8,1,5.4a2.86,2.86,0,0,0,1-2.4c0-3.3,3.7-5.5,10-5.9l6-.4v21.9c0,23.4-.3,24.8-5,25.6-1.4.2,2.5.4,8.5.4s9.9-.2,8.5-.4c-5-.9-5-1.1-5-24.9V101h5.3c6.2,0,9.3,1.8,10.6,6.3.8,2.8.9,2.5,1-3.1L722,98H680Z" transform="translate(-26.12 -17.36)"/>
    <path class="cls-1" d="M393.6,158.8c-1.4,2.3-3.8,20.9-4.3,33.8-1,23,1.4,30.5,11.1,35.7,3.6,1.9,5.6,2.2,16.6,2.2,14.3,0,20-.9,20-3.1,0-1.3-.8-1.4-4.7-.7a150.08,150.08,0,0,1-16.3.8c-10.3,0-11.9-.2-15.3-2.3a15.42,15.42,0,0,1-5.1-5.1c-4.2-7.9-4.5-27.3-1-49.4,1.1-7.4,1.3-11.2.6-11.9S394,158.2,393.6,158.8Z" transform="translate(-26.12 -17.36)"/>
    <path class="cls-1" d="M650.5,171.4c-9.5,4.2-17.5,20.1-17.5,35.1,0,8.5,1.6,13.4,5.9,17.6,9.6,9.6,28.9,6.8,42.6-6.2,3-2.9,5.5-5.6,5.5-6,0-2.4-4-.4-8.4,4.1-8.9,9-22.3,13.2-32.1,10-4-1.3-9.5-7.9-9.5-11.4,0-1.3,2.3-4.4,5.6-7.6,11.3-11.2,19.4-23.7,19.4-30.2,0-2.4-4.3-6.8-6.7-6.8A21.66,21.66,0,0,0,650.5,171.4Zm7.5,4.1c1.7,4.5-3.8,14.3-14.9,26.5-3.2,3.6-6.2,6.2-6.7,5.7-1.4-1.4,1.4-14.9,4.5-21.2C646.3,175.5,655.8,169.5,658,175.5Z" transform="translate(-26.12 -17.36)"/>
    <path class="cls-1" d="M464.4,199.9c-7.2,4.4-10.6,15-7,22,4.9,9.5,21,9.7,38.6.5,6.9-3.6,14-8.9,14-10.5,0-1.8-2.8-.8-7.2,2.6-16.4,12.5-36.5,15.9-41.8,7.2a20.74,20.74,0,0,1-2-3.7c0-.3,2.9-1.8,6.4-3.3,10-4.4,14.4-10.6,10.6-15.2C474.3,197.4,468.1,197.6,464.4,199.9ZM473,201c3.7,2.3-3.8,10.1-11.9,12.5-2.2.7-2.3.5-1.7-2.1,1.1-4.2,4.5-8.4,8-10C471.1,199.8,471.1,199.8,473,201Z" transform="translate(-26.12 -17.36)"/>
    <path class="cls-1" d="M526.2,200.7c-5.2,1.8-15,10.6-16.9,15-2,4.8-1.6,7.1,1.6,10.4,5.3,5.3,10.3,3.6,21.8-7.3l7.3-6.9,3,1.6c4.1,2.1,8.1,8.5,8.8,14l.5,4.5h-7c-8.3,0-21,3.1-26.7,6.4-6.9,4.1-9.8,7.9-10.4,13.5-.4,4.6-.2,5.3,2.6,8.1,3.1,3,4.3,3.4,11.7,3.1,11.8-.3,24.7-9.7,30.3-21.9,2.4-5.2,2.5-5.4,5.8-4.7a33.61,33.61,0,0,1,7.6,2.5c4.4,2,6.1,1.8,5.2-.4-.5-1.4-6.1-3.8-12.4-5.4-3.3-.8-3.5-1.1-4.2-6.2-.9-7.8-7-15.6-13.5-17.5-1.8-.5-3.8.9-10.7,7.4-6.2,5.8-9.5,8.2-12.1,8.7-11,2-7.5-12.4,4.9-20.1,5-3,11.1-3.9,14.9-2.1,1.2.6,1.7.4,1.7-.8,0-1.8-3.9-3.6-7.3-3.5A25,25,0,0,0,526.2,200.7Zm24.8,36c0,3.2-5.8,12-10.2,15.6-5.8,4.7-9.8,6.6-16.3,7.8-9.3,1.7-14.9-2.3-13.1-9.4,2.1-8.4,16.7-15.5,32.4-15.6C550,235,551,235.2,551,236.7Z" transform="translate(-26.12 -17.36)"/>
    <path class="cls-1" d="M580,205.7c-7.2,3.8-11.2,8.9-11.8,15.1-.4,4.3-.1,5.1,1.9,6.6a9.49,9.49,0,0,0,4.4,1.6c3.4,0,11.7-4.5,16.8-9,2.6-2.3,4.9-4.1,5-3.9s.9,1.7,1.7,3.2c4,8,14.6,8.9,24.5,2.1,6.5-4.4,10.1-8.6,9-10.4-.5-.8-2,.1-4.9,2.8-8.9,8.5-15.5,11.3-20.4,8.8a14.33,14.33,0,0,1-6.8-9c-.3-1.4-1-2.9-1.6-3.2s-4,2.4-7.8,6c-7.6,7.2-12,9.9-15.2,9.4-5-.7-4.8-6.4.4-12.3,4.6-5.3,10.2-7.9,15.5-7.1,4.4.6,5.3,0,3.1-2.2C591.8,202.2,585.5,202.9,580,205.7Z" transform="translate(-26.12 -17.36)"/>
  </g>
</svg>
